<svg viewBox="0 0 1097 242" xmlns="http://www.w3.org/2000/svg" role="img" aria-label="arch-diagram-builder — IR to self-contained HTML" data-animate="off" font-family="sans-serif"><style>:root{--bg:#ffffff;--panel:#f6f8fa;--border:#d0d7de;--text:#1f2328;--muted:#656d76;--node:#eef2ff;--node-border:#c7d2fe;--node-text:#312e81;--edge:#8b95a5;--accent:#4f46e5;--accent-text:#ffffff;background:var(--bg)}@media(prefers-color-scheme:dark){:root{--bg:#0b1020;--panel:#131a2e;--border:#2a3550;--text:#e6edf3;--muted:#9aa7b8;--node:#1e2740;--node-border:#3a496b;--node-text:#dbe4ff;--edge:#5b6a86;--accent:#818cf8;--accent-text:#0b1020}}.node{fill:var(--node);stroke:var(--node-border);stroke-width:1.5}.node-accent{fill:var(--accent);stroke:var(--accent)}.label{fill:var(--node-text);font-family:sans-serif;font-size:14px}.label-accent{fill:var(--accent-text);font-family:sans-serif;font-size:14px}.muted{fill:var(--muted);font-family:sans-serif;font-size:12px}.edge{stroke:var(--edge);stroke-width:1.75;fill:none}.edge-label{fill:var(--muted);font-family:sans-serif;font-size:11px}.cat-frontend{fill:rgba(34,211,238,.14);stroke:#22d3ee;stroke-width:1.5}.cat-backend{fill:rgba(52,211,153,.14);stroke:#34d399;stroke-width:1.5}.cat-database{fill:rgba(167,139,250,.16);stroke:#a78bfa;stroke-width:1.5}.cat-cloud{fill:rgba(251,191,36,.14);stroke:#fbbf24;stroke-width:1.5}.cat-security{fill:rgba(244,63,94,.14);stroke:#f43f5e;stroke-width:1.5}.cat-queue{fill:rgba(251,146,60,.16);stroke:#fb923c;stroke-width:1.5}.cat-external{fill:rgba(148,163,184,.16);stroke:#94a3b8;stroke-width:1.5;stroke-dasharray:5 4}.lane{fill:transparent}.lane-alt{fill:rgba(128,128,128,.06)}.lane-exception{fill:rgba(244,63,94,.06)}.lane-label{fill:var(--muted);font-family:sans-serif;font-size:12px;font-weight:600}.phase-label{fill:var(--muted);font-family:sans-serif;font-size:12px;font-weight:600}.lifeline{stroke:var(--border);stroke-width:1.25;stroke-dasharray:4 4}.edge-happy{stroke:var(--accent);stroke-width:2.25}.edge-exception{stroke:#f43f5e;stroke-width:1.75;stroke-dasharray:6 4}</style><rect x="0" y="0" width="100%" height="100%" fill="var(--bg)"/>
<defs>
    <marker id="arrow" viewBox="0 0 10 10" refX="9" refY="5" markerWidth="7" markerHeight="7" orient="auto-start-reverse"><path d="M0 0L10 5L0 10z" fill="var(--edge)"/></marker>
    <marker id="arrow-accent" viewBox="0 0 10 10" refX="9" refY="5" markerWidth="7" markerHeight="7" orient="auto-start-reverse"><path d="M0 0L10 5L0 10z" fill="var(--accent)"/></marker>
    <marker id="arrow-exc" viewBox="0 0 10 10" refX="9" refY="5" markerWidth="7" markerHeight="7" orient="auto-start-reverse"><path d="M0 0L10 5L0 10z" fill="#f43f5e"/></marker>
  </defs>
<path class="edge" d="M141 56 L211 56" fill="none" marker-end="url(#arrow)"/>
<path class="edge edge-happy edge-flow" d="M329 56 L399 56" fill="none" marker-end="url(#arrow-accent)"/>
<text x="329" y="50" text-anchor="middle" class="edge-label">ok</text>
<path class="edge" d="M558 56 L633 56" fill="none" marker-end="url(#arrow)"/>
<path class="edge" d="M787 140 L822 140 L822 56 L857 56" fill="none" marker-end="url(#arrow)"/>
<text x="822" y="134" text-anchor="middle" class="edge-label">wrap</text>
<path class="edge edge-happy edge-flow" d="M783 56 L857 56" fill="none" marker-end="url(#arrow-accent)"/>
<path class="edge" d="M961 80 L961 116" fill="none" marker-end="url(#arrow)"/>
<text x="961" y="74" text-anchor="middle" class="edge-label">in-browser</text>
<rect x="32" y="32" width="109" height="48" rx="10" class="cat-frontend"/>
<text x="87" y="61" text-anchor="middle" class="label">JSON IR</text>
<rect x="211" y="32" width="118" height="48" rx="10" class="cat-security"/>
<text x="270" y="61" text-anchor="middle" class="label">validate</text>
<rect x="399" y="32" width="159" height="48" rx="10" class="cat-backend"/>
<text x="479" y="61" text-anchor="middle" class="label">layout engine</text>
<rect x="633" y="32" width="150" height="48" rx="10" class="cat-backend"/>
<text x="708" y="61" text-anchor="middle" class="label">render → SVG</text>
<rect x="628" y="116" width="159" height="48" rx="10" class="cat-cloud"/>
<text x="708" y="145" text-anchor="middle" class="label">template.html</text>
<rect x="857" y="32" width="208" height="48" rx="10" class="cat-database"/>
<text x="961" y="61" text-anchor="middle" class="label">self-contained HTML</text>
<rect x="866" y="116" width="191" height="48" rx="10" class="cat-external"/>
<text x="961" y="145" text-anchor="middle" class="label">PNG/JPEG/WebP/SVG</text>
<g class="legend" role="list" aria-label="Legend">
<rect x="32" y="210" width="16" height="16" rx="4" class="cat-frontend"/>
<text x="54" y="223" class="edge-label">Frontend</text>
<rect x="136" y="210" width="16" height="16" rx="4" class="cat-security"/>
<text x="158" y="223" class="edge-label">Security</text>
<rect x="240" y="210" width="16" height="16" rx="4" class="cat-backend"/>
<text x="262" y="223" class="edge-label">Backend</text>
<rect x="337" y="210" width="16" height="16" rx="4" class="cat-cloud"/>
<text x="359" y="223" class="edge-label">Cloud/Infra</text>
<rect x="462" y="210" width="16" height="16" rx="4" class="cat-database"/>
<text x="484" y="223" class="edge-label">Database</text>
<rect x="566" y="210" width="16" height="16" rx="4" class="cat-external"/>
<text x="588" y="223" class="edge-label">External</text>
</g>
</svg>
